PathFileType	4	(X/Y/Z)	C:\Git\research_data\torsion_deformities_healthy_kinematics\simulations\P03\pre\Static01\markers.trc
DataRate	CameraRate	NumFrames	NumMarkers	Units	OrigDataRate	OrigDataStartFrame	OrigNumFrames
150.000000	150.000000	4	104	mm	150.000000	131	150
Frame#	Time	LFHD			LBHD			RFHD			RBHD			C7			T10			CLAV			STRN			RBAK			LSHO			LUPA			LELB			LFRA			LWRB			LWRA			LFIN			RSHO			RUPA			RELB			RFRA			RWRB			RWRA			RFIN			SACR			LASI			RASI			LT1			LT2			LT3			LS1			LS2			LS3			LHEE			LTOE			RT1			RT2			RT3			RS1			RS2			RS3			RHEE			RTOE			LKNE			LKNM			LANK			LANM			RKNM			RKNE			RANM			RANK			SACO			SACA			SACL			SACP			LKJC			RKJC			LAJC			RAJC			LMMA			RMMA			LTHI			RTHI			LTIB			RTIB			funktRKJC			funktLKJC			funktRHIP			funktLHIP			LHJC			RHJC			LPelvisAngles			RPelvisAngles			LFootProgressAngles			RFootProgressAngles			LHipAngles			RHipAngles			LKneeAngles			RKneeAngles			LAnkleAngles			RAnkleAngles			LFFootAngles			RFFootAngles			LAbsAnkleAngle			RAbsAnkleAngle			RNeckAngles			LNeckAngles			RSpineAngles			LSpineAngles			LShoulderAngles			LElbowAngles			LWristAngles			RShoulderAngles			RElbowAngles			RWristAngles			RThoraxAngles			LThoraxAngles			RHeadAngles			LHeadAngles			LNormalisedGRF			RNormalisedGRF			LGroundReactionForce			RGroundReactionForce			LGRF			RGRF			
		X1	Y1	Z1	X2	Y2	Z2	X3	Y3	Z3	X4	Y4	Z4	X5	Y5	Z5	X6	Y6	Z6	X7	Y7	Z7	X8	Y8	Z8	X9	Y9	Z9	X10	Y10	Z10	X11	Y11	Z11	X12	Y12	Z12	X13	Y13	Z13	X14	Y14	Z14	X15	Y15	Z15	X16	Y16	Z16	X17	Y17	Z17	X18	Y18	Z18	X19	Y19	Z19	X20	Y20	Z20	X21	Y21	Z21	X22	Y22	Z22	X23	Y23	Z23	X24	Y24	Z24	X25	Y25	Z25	X26	Y26	Z26	X27	Y27	Z27	X28	Y28	Z28	X29	Y29	Z29	X30	Y30	Z30	X31	Y31	Z31	X32	Y32	Z32	X33	Y33	Z33	X34	Y34	Z34	X35	Y35	Z35	X36	Y36	Z36	X37	Y37	Z37	X38	Y38	Z38	X39	Y39	Z39	X40	Y40	Z40	X41	Y41	Z41	X42	Y42	Z42	X43	Y43	Z43	X44	Y44	Z44	X45	Y45	Z45	X46	Y46	Z46	X47	Y47	Z47	X48	Y48	Z48	X49	Y49	Z49	X50	Y50	Z50	X51	Y51	Z51	X52	Y52	Z52	X53	Y53	Z53	X54	Y54	Z54	X55	Y55	Z55	X56	Y56	Z56	X57	Y57	Z57	X58	Y58	Z58	X59	Y59	Z59	X60	Y60	Z60	X61	Y61	Z61	X62	Y62	Z62	X63	Y63	Z63	X64	Y64	Z64	X65	Y65	Z65	X66	Y66	Z66	X67	Y67	Z67	X68	Y68	Z68	X69	Y69	Z69	X70	Y70	Z70	X71	Y71	Z71	X72	Y72	Z72	X73	Y73	Z73	X74	Y74	Z74	X75	Y75	Z75	X76	Y76	Z76	X77	Y77	Z77	X78	Y78	Z78	X79	Y79	Z79	X80	Y80	Z80	X81	Y81	Z81	X82	Y82	Z82	X83	Y83	Z83	X84	Y84	Z84	X85	Y85	Z85	X86	Y86	Z86	X87	Y87	Z87	X88	Y88	Z88	X89	Y89	Z89	X90	Y90	Z90	X91	Y91	Z91	X92	Y92	Z92	X93	Y93	Z93	X94	Y94	Z94	X95	Y95	Z95	X96	Y96	Z96	X97	Y97	Z97	X98	Y98	Z98	X99	Y99	Z99	X100	Y100	Z100	X101	Y101	Z101	X102	Y102	Z102	X103	Y103	Z103	X104	Y104	Z104	

132	0.8733333333333334	392.3413085937498	1435.92822265625	-1141.024047851562	368.804229736328	1419.911010742188	-1001.971069335938	508.4810180664061	1436.326293945312	-1145.50341796875	517.3814697265623	1419.774658203125	-992.2420043945312	445.8815002441405	1273.034057617188	-965.8370361328125	441.9349975585936	1093.662231445312	-914.8189697265625	432.9732055664061	1210.126708984375	-1096.0234375	428.2136230468749	1156.920776367188	-1128.288452148438	541.0910034179685	1173.951171875	-930.9760131835938	315.9755554199218	1263.67333984375	-1043.241577148438	217.7950744628905	1048.980712890625	-980.5261840820312	188.1412658691405	975.757080078125	-970.0671997070312	143.6535339355468	893.7263793945312	-986.5283813476562	87.29778289794912	774.6708374023438	-1032.943359375	126.0290756225585	779.010498046875	-1087.948364257812	81.20968627929676	721.7158203125	-1119.789794921875	565.3952636718748	1246.225219726562	-1058.572265625	651.6581420898435	1071.56982421875	-1047.491088867188	703.4031982421873	952.0869140625	-1026.097778320312	755.6710205078124	823.2819213867188	-1086.713623046875	775.0822753906249	743.1187744140625	-1099.0537109375	723.3201293945311	739.7805786132812	-1142.006713867188	768.6407470703124	692.5107421875	-1183.234130859375	428.205841064453	874.44677734375	-916.931640625	277.9859313964843	870.9234008789062	-1074.062255859375	521.4370727539061	876.1458129882812	-1124.228881835938	242.9238128662109	585.7631225585938	-1129.6875	230.470489501953	474.1244812011719	-1080.7880859375	276.7128906249999	531.2315673828125	-1204.289916992188	282.4421997070312	217.0014953613282	-1033.876098632812	342.3093566894531	148.7097320556641	-950.8027954101562	254.3029632568359	131.4622192382813	-1062.625366210938	368.0152893066406	41.88064956665041	-973.8858032226562	262.3520507812499	41.35154342651369	-1083.23046875	591.8381958007811	605.3853759765625	-1134.415283203125	584.2784423828124	506.6351928710938	-1058.829467773438	582.5933227539061	532.8768310546875	-1200.246215820312	586.7993774414061	265.8110351562501	-1092.090698242188	562.1115722656249	217.4144744873047	-983.9387817382812	581.7921752929686	175.2855072021485	-1118.736206054688	499.7992858886718	45.01204681396487	-981.8675537109375	570.0352783203124	41.99885177612308	-1123.544067382812	267.8942565917968	432.3599243164062	-1148.925537109375	367.4497070312499	421.3152465820312	-1164.2568359375	304.9115905761718	49.72610092163088	-994.3240356445312	356.9975891113281	47.02542495727541	-1045.003662109375	465.5913085937499	422.7068481445313	-1168.96826171875	568.2221679687499	438.3413391113282	-1168.820190429688	490.1072692871093	52.55435562133792	-1062.745361328125	551.9657592773436	47.90394973754886	-1019.134399414062	423.112579345703	874.2261352539062	-985.5120239257812	421.9425354003905	874.1915283203125	-991.1936645507812	417.4322204589843	874.104248046875	-984.3414916992188	421.8490295410155	932.222412109375	-985.6049194335938	317.6719970703124	426.8375854492188	-1156.591186523438	516.9067382812499	430.5240783691407	-1168.894165039062	330.9545898437499	48.37576293945315	-1019.663818359375	521.0364990234374	50.22915267944339	-1040.93994140625	356.9975891113281	47.02542495727541	-1045.003662109375	490.1072692871093	52.55435562133792	-1062.745361328125	224.439483642578	610.997314453125	-1086.032470703125	602.0808105468749	622.8743896484375	-1118.962036132812	242.4586639404296	243.9647674560547	-1009.321594238281	613.1802368164061	243.5577850341797	-1041.876342773438	0	0	0	0	0	0	0	0	0	0	0	0	353.2445373535155	782.3988037109375	-1045.827514648438	466.9772949218749	784.0164794921875	-1068.695556640625	-1.24777591228485	-11.63905620574951	0.09166853874921807	1.24777591228485	11.63905620574951	0.0916685387492179	13.19167613983155	-44.03619384765625	0.1833610236644737	9.452611923217775	-26.34271049499512	1.174603104591369	-3.057113170623778	5.046672821044922	18.37740135192871	-9.575987815856934	-9.418708801269531	14.27797603607178	2.296185493469243	-34.32231903076172	37.80864715576172	7.078756332397464	-30.3705997467041	34.40964508056641	1.285184860229493	-2.569156885147095	15.39552116394043	-0.4184403419494623	5.111679077148438	15.35384845733643	-1.012559384652907e-15	-3.18055471858951e-15	4.969616747796116e-17	4.39811058191718e-15	-3.18055471858951e-15	-1.590277359294755e-15	9.280548131201219e-16	0	15.15628528594971	9.30670415364528e-16	0	15.19900131225586	-1.771273612976075	7.448790073394775	-11.05946063995361	1.771273612976074	-7.448790073394775	-11.05946063995361	3.730823993682861	7.196335315704346	4.238959789276123	-3.73082399368286	-7.196335315704346	4.238959789276123	18.50234031677246	-10.9823989868164	-10.31571865081787	8.274657376619756e-16	1.289714971104694e-12	39.4847412109375	-13.89567279815674	130.3146667480469	16.23948669433594	25.10264015197754	0.8459965586662308	-7.745073318481447	-6.128171548944707e-15	3.698985128613996e-12	36.26816940307617	-0.8047429919242929	133.3033142089844	19.09629058837891	-2.136824131011963	4.615931034088135	4.609861373901367	2.136824131011964	-4.615931034088135	4.609861373901367	0.1819399446249014	-2.848908424377441	6.34846019744873	-0.1819399446249006	2.848908424377441	6.34846019744873	0	0	0	0	0	0	0	0	0	0	0	0	0	0	0	0	0	0	
133	0.88	392.4630126953123	1436.0107421875	-1140.92724609375	368.8343811035155	1420.014526367188	-1001.890930175781	508.6243286132811	1436.289794921875	-1145.325439453125	517.3988037109373	1419.725708007812	-992.0598754882812	445.8269042968749	1272.995727539062	-965.7656860351562	441.8919677734374	1093.6005859375	-914.8357543945312	432.9421386718749	1210.215087890625	-1095.947265625	428.1892700195311	1157.049560546875	-1128.282958984375	541.0526733398435	1173.901489257812	-930.93896484375	315.9432067871093	1263.688842773438	-1043.192993164062	217.7330932617186	1048.990966796875	-980.5478515625	188.0474395751952	975.783203125	-970.1439208984375	143.5352020263671	893.7705688476562	-986.638427734375	87.13545227050771	774.7379150390625	-1033.084838867188	125.8080520629882	779.1039428710938	-1088.067749023438	81.00881958007801	721.8372802734375	-1119.976440429688	565.3759765624998	1246.249633789062	-1058.4189453125	651.6450195312498	1071.611572265625	-1047.405395507812	703.392639160156	952.106201171875	-1026.113525390625	755.6979370117186	823.370849609375	-1086.858520507812	775.0795288085936	743.2158203125	-1099.216064453125	723.3563842773436	739.9205322265625	-1142.228759765625	768.7081909179686	692.7184448242188	-1183.495239257812	428.2008056640624	874.4133911132812	-917.0292358398438	278.0353393554686	870.9471435546875	-1074.220336914062	521.5135498046874	876.1403198242188	-1124.291259765625	242.956329345703	585.7723999023438	-1129.81787109375	230.4436645507812	474.1385803222656	-1080.908447265625	276.7741088867186	531.2158203125	-1204.385375976562	282.4490966796874	217.0035552978516	-1033.899536132812	342.3217468261718	148.7258758544922	-950.8142700195312	254.2990112304687	131.4594268798828	-1062.631103515625	368.0154418945312	41.88625717163088	-973.894775390625	262.3442687988281	41.34985733032228	-1083.234741210938	591.8093261718749	605.3729248046875	-1134.494262695312	584.2126464843749	506.6334838867188	-1058.897583007812	582.5635375976561	532.8480834960938	-1200.317260742188	586.7645263671874	265.8006286621094	-1092.150146484375	562.0983276367186	217.4176788330078	-983.98291015625	581.7548217773436	175.2820281982422	-1118.77294921875	499.7945251464843	45.01496124267581	-981.872314453125	570.0269165039061	41.99118041992191	-1123.547973632812	267.9089965820312	432.339599609375	-1149.002075195312	367.4843139648437	421.296630859375	-1164.3115234375	304.9096374511718	49.72975158691408	-994.332275390625	356.9948120117187	47.02383041381838	-1045.006225585938	465.5384826660156	422.7038574218751	-1169.016967773438	568.1623535156249	438.3187255859376	-1168.886840820312	490.0945739746093	52.54268646240237	-1062.745239257812	551.9588623046874	47.9067535400391	-1019.145263671875	423.1307983398436	874.2078247070312	-985.6127319335938	421.9630126953124	874.1746215820312	-991.294921875	417.4499206542968	874.086669921875	-984.4445190429688	421.8771972656249	932.204345703125	-985.6939697265625	317.6966552734374	426.818115234375	-1156.65673828125	516.8504028320311	430.5112915039063	-1168.951904296875	330.9522399902343	48.37679290771487	-1019.669311523438	521.0267333984374	50.22472000122073	-1040.9453125	356.9948120117187	47.02383041381838	-1045.006225585938	490.0945739746093	52.54268646240237	-1062.745239257812	224.4631195068359	611.0010375976562	-1086.160034179688	602.0679931640624	622.8400268554688	-1119.06201171875	242.4649658203124	243.9718322753907	-1009.36328125	613.1586914062499	243.5642242431641	-1041.921142578125	0	0	0	0	0	0	0	0	0	0	0	0	353.2715759277343	782.4044799804688	-1045.974975585938	467.0136108398436	784.00830078125	-1068.7978515625	-1.238373517990112	-11.61648559570312	0.08022889494895942	1.238373517990112	11.61648559570312	0.08022889494895928	13.19963645935059	-44.0382194519043	0.1862276941537849	9.46102809906006	-26.34319686889648	1.177608489990234	-3.06071925163269	5.034067153930664	18.35022735595703	-9.561938285827637	-9.388480186462402	14.26498317718506	2.2998218536377	-34.32805252075195	37.8037109375	7.063826084136966	-30.37641525268555	34.40890121459961	1.286969661712648	-2.575263977050781	15.39675235748291	-0.4158911705017084	5.102348327636719	15.35443115234375	3.708576634941238e-15	-1.590277359294755e-15	-2.484808473159731e-16	-1.254828235270527e-14	-7.683606909018861e-31	-3.97569339823688e-16	9.281333553500057e-16	0	15.15756797790527	9.306435533379506e-16	0	15.19856262207031	-1.707874059677125	7.473966121673584	-11.02022171020508	1.707874059677124	-7.473966121673584	-11.02022171020508	3.714696884155273	7.178699493408203	4.213352680206299	-3.714696884155273	-7.178699493408203	4.213352680206299	18.5255126953125	-10.99734210968017	-10.32998847961426	7.188121662845326e-15	-4.945762766342399e-13	39.47733306884766	-13.91412734985352	130.2814178466797	16.26981925964355	25.10283279418945	0.8397591710090653	-7.746582984924318	1.823977252337357e-15	1.836770319174619e-12	36.28060913085938	-0.7727619409561227	133.2727355957031	19.11882400512695	-2.132612943649292	4.609559059143066	4.571322441101074	2.132612943649293	-4.609559059143066	4.571322441101074	0.1279442757368093	-2.891301393508911	6.349668025970459	-0.1279442757368086	2.891301393508911	6.349668025970459	0	0	0	0	0	0	0	0	0	0	0	0	0	0	0	0	0	0	
134	0.8866666666666667	392.5790710449217	1436.094970703125	-1140.831298828125	368.8500061035155	1420.111450195312	-1001.811157226562	508.7610473632811	1436.25634765625	-1145.139282226562	517.4040527343748	1419.675537109375	-991.8780517578125	445.7727050781249	1272.960083007812	-965.6961059570312	441.8576354980468	1093.540649414062	-914.8491821289062	432.9038085937499	1210.294189453125	-1095.8798828125	428.1604919433593	1157.16650390625	-1128.274047851562	541.0200195312498	1173.851806640625	-930.91015625	315.9072265624999	1263.689453125	-1043.138305664062	217.6732330322264	1048.986694335938	-980.5761108398438	187.9178771972655	975.8322143554688	-970.185302734375	143.412872314453	893.8014526367188	-986.744140625	86.9824218749999	774.7833862304688	-1033.232788085938	125.5849685668944	779.19091796875	-1088.202758789062	80.78811645507801	721.9547729492188	-1120.1640625	565.3482666015623	1246.279296875	-1058.268310546875	651.6295776367185	1071.662475585938	-1047.330688476562	703.3908081054685	952.1370849609375	-1026.1396484375	755.7355957031249	823.4724731445312	-1087.007934570312	775.0836181640624	743.3292236328125	-1099.391235351562	723.3950805664061	740.0718994140625	-1142.444458007812	768.7694091796874	692.939453125	-1183.755615234375	428.2098693847655	874.3798828125	-917.1349487304688	278.0796508789061	870.9572143554688	-1074.375366210938	521.5746459960936	876.1398315429688	-1124.362426757812	242.9866485595702	585.7808837890625	-1129.956909179688	230.4208221435546	474.1511535644531	-1081.032348632812	276.8380126953124	531.2003173828125	-1204.493774414062	282.4538574218749	217.0021362304688	-1033.925415039062	342.3323059082031	148.7420501708985	-950.8270263671875	254.2972106933593	131.4502716064453	-1062.6435546875	368.0143432617187	41.89171218872072	-973.9013671875	262.3371582031249	41.3458595275879	-1083.237915039062	591.7880859374999	605.365966796875	-1134.562622070312	584.1498413085936	506.6398315429688	-1058.955200195312	582.5445556640624	532.8226928710938	-1200.370239257812	586.7332153320311	265.7934570312501	-1092.2080078125	562.0831909179686	217.4206695556641	-984.0154418945312	581.7275390624999	175.2812957763672	-1118.801513671875	499.7910766601562	45.01807403564456	-981.8762817382812	570.0230712890624	41.98114013671879	-1123.5478515625	267.9208374023437	432.3152465820312	-1149.088012695312	367.5162963867187	421.271240234375	-1164.3623046875	304.9110717773437	49.73042297363283	-994.3380126953125	356.9918212890624	47.02104568481447	-1045.009887695312	465.4936523437499	422.7011413574219	-1169.0537109375	568.1139526367186	438.3014221191407	-1168.941772460938	490.0848083496093	52.53288269042972	-1062.744750976562	551.9531860351561	47.90808105468754	-1019.154907226562	423.1449584960936	874.1879272460938	-985.7178955078125	421.9791259765624	874.156005859375	-991.4004516601562	417.4636840820311	874.0670166015625	-984.5516357421875	421.8963012695311	932.1845703125	-985.7877807617188	317.7185668945312	426.7932434082031	-1156.725219726562	516.8037719726561	430.5012817382813	-1168.997802734375	330.9514465332031	48.37573242187502	-1019.673950195312	521.0189819335936	50.22048187255862	-1040.949829101562	356.9918212890624	47.02104568481447	-1045.009887695312	490.0848083496093	52.53288269042972	-1062.744750976562	224.4839477539062	611.00341796875	-1086.302856445312	602.0574340820311	622.8112182617188	-1119.159545898438	242.4757385253905	243.9769134521485	-1009.401672363281	613.1416625976561	243.5690460205078	-1041.9580078125	0	0	0	0	0	0	0	0	0	0	0	0	353.2985229492186	782.402587890625	-1046.1220703125	467.0484313964843	784.0013427734375	-1068.906005859375	-1.233521819114684	-11.59702682495117	0.06923662126064307	1.233521819114684	11.59702682495117	0.06923662126064294	13.20763778686524	-44.04079055786133	0.1892761886119834	9.467291831970217	-26.34598541259766	1.182309508323669	-3.067767620086669	5.033486843109131	18.32527732849121	-9.545726776123047	-9.362125396728516	14.24973392486572	2.308954238891606	-34.34296798706055	37.79985809326172	7.051923751831058	-30.38285064697266	34.40400695800781	1.288049936294557	-2.578612089157104	15.39858627319336	-0.4130443334579462	5.092223167419434	15.35221290588379	-1.099527709006766e-14	1.590277359294755e-15	3.25509891190381e-15	1.490885030956278e-15	9.129037905286542e-32	5.963540229704229e-16	9.282270220687667e-16	0	15.15909767150879	9.304903813907497e-16	0	15.19606113433838	-1.642544627189637	7.505433559417725	-10.98769664764404	1.642544627189636	-7.505433559417725	-10.98769664764404	3.700865745544434	7.160984039306641	4.191112041473389	-3.700865745544433	-7.160984039306641	4.191112041473389	18.56182479858398	-10.96905612945556	-10.34880161285401	2.417897495213679e-15	3.934346338302364e-12	39.48726272583008	-13.89019203186036	130.2007141113281	16.29774284362793	25.10332870483398	0.8355970978736893	-7.744700431823732	-1.631659482068941e-16	-2.488784135376565e-12	36.29209899902344	-0.7440262436866829	133.2487945556641	19.14090919494629	-2.125623464584351	4.606320858001709	4.536949157714844	2.125623464584351	-4.606320858001709	4.536949157714844	0.07567042112350521	-2.936556100845337	6.353470325469971	-0.07567042112350443	2.936556100845337	6.353470325469971	0	0	0	0	0	0	0	0	0	0	0	0	0	0	0	0	0	0	
135	0.8933333333333334	392.6876831054686	1436.178833007812	-1140.734741210938	368.8511352539061	1420.198852539062	-1001.731506347656	508.8851013183592	1436.228759765625	-1144.9501953125	517.401428222656	1419.625732421875	-991.7039184570312	445.718048095703	1272.927490234375	-965.626708984375	441.8311157226561	1093.48388671875	-914.8560791015625	432.8612976074218	1210.362915039062	-1095.819702148438	428.1304321289061	1157.268920898438	-1128.26318359375	540.9896850585935	1173.8056640625	-930.8848266601562	315.8676147460936	1263.676635742188	-1043.075317382812	217.6159210205077	1048.968017578125	-980.60986328125	187.8001251220702	975.8564453125	-970.2255859375	143.2891387939452	893.8150634765625	-986.8385620117188	86.83094787597646	774.8157958984375	-1033.384399414062	125.3718414306639	779.2686157226562	-1088.358642578125	80.55091094970692	722.0658569335938	-1120.348876953125	565.3126831054685	1246.3154296875	-1058.126220703125	651.6110229492185	1071.720947265625	-1047.269653320312	703.3955078124998	952.1790771484375	-1026.17333984375	755.7844848632811	823.58837890625	-1087.16259765625	775.1194458007811	743.4527587890625	-1099.594848632812	723.4382324218749	740.236572265625	-1142.6513671875	768.8306274414061	693.164794921875	-1184.005126953125	428.2309265136718	874.3438110351562	-917.24658203125	278.1174926757811	870.9549560546875	-1074.522705078125	521.6199951171874	876.1452026367188	-1124.442260742188	243.0159454345702	585.7870483398438	-1130.1005859375	230.4051208496093	474.1646423339844	-1081.1591796875	276.9044189453124	531.1859741210938	-1204.613525390625	282.4564514160156	216.9984130859375	-1033.954833984375	342.3414001464843	148.7580718994141	-950.8425903320312	254.2968444824218	131.4364013671875	-1062.6630859375	368.0121459960937	41.89764785766604	-973.9060668945312	262.3316650390624	41.33993911743165	-1083.239868164062	591.7736816406249	605.3641357421875	-1134.620361328125	584.0922241210936	506.6547851562501	-1059.003173828125	582.5341796874999	532.803466796875	-1200.409545898438	586.7066040039061	265.7897033691407	-1092.261840820312	562.0684204101561	217.4234619140625	-984.0382690429688	581.7100219726561	175.2824401855469	-1118.822387695312	499.7889404296874	45.0214767456055	-981.8795166015625	570.0236206054686	41.96964263916019	-1123.54443359375	267.9232788085937	432.2979125976562	-1149.194213867188	367.5404663085937	421.2423400878906	-1164.408813476562	304.9154663085937	49.72740936279299	-994.3407592773438	356.9894714355468	47.01700973510744	-1045.015014648438	465.4579162597656	422.6960144042969	-1169.078857421875	568.0780029296874	438.2908935546876	-1168.986450195312	490.0775756835937	52.5253829956055	-1062.744506835938	551.9490966796874	47.90829086303714	-1019.1630859375	423.1561279296874	874.1657104492188	-985.8251342773438	421.9917907714843	874.1349487304688	-991.5079956054688	417.4745483398436	874.0446166992188	-984.660400390625	421.9080505371093	932.1624145507812	-985.8834228515625	317.7318725585937	426.7701110839844	-1156.801513671875	516.7680053710936	430.4934387207032	-1169.03271484375	330.9524536132812	48.37220764160158	-1019.677856445312	521.0133056640624	50.21683883666995	-1040.953735351562	356.9894714355468	47.01700973510744	-1045.015014648438	490.0775756835937	52.5253829956055	-1062.744506835938	224.4985198974609	611.0140380859375	-1086.476318359375	602.0493774414061	622.7887573242188	-1119.25732421875	242.4859161376952	243.9826354980469	-1009.437927246094	613.1292724609374	243.5721588134766	-1041.987182617188	0	0	0	0	0	0	0	0	0	0	0	0	353.3248596191405	782.3934936523438	-1046.267211914062	467.0809020996093	783.995849609375	-1069.020141601562	-1.232883691787719	-11.58168029785156	0.05764386802911766	1.232883691787719	11.58168029785156	0.05764386802911751	13.21579837799073	-44.04365921020508	0.1918619126081459	9.47149181365967	-26.35087013244629	1.188333630561828	-3.078452587127685	5.053408622741699	18.30295944213867	-9.527985572814941	-9.339371681213379	14.23096942901611	2.329525709152226	-34.37201690673828	37.79871368408203	7.044099330902103	-30.3908519744873	34.39504623413086	1.288612246513368	-2.579452514648438	15.40235996246338	-0.4099995195865625	5.081602573394775	15.34776496887207	4.615531657499623e-15	1.590277359294755e-15	-3.727212577390698e-16	3.702364495306075e-15	1.590277359294755e-15	-5.963540229704232e-16	9.283804859945174e-16	0	15.1616039276123	9.302436011204975e-16	0	15.19203090667725	-1.577368259429933	7.539772510528564	-10.96193313598633	1.577368259429931	-7.539772510528564	-10.96193313598633	3.68892765045166	7.145657539367676	4.173042774200439	-3.688927650451659	-7.145657539367676	4.173042774200439	18.59692001342773	-10.94976711273193	-10.36032962799072	6.394259332774246e-15	-1.353325979926157e-12	39.49817657470703	-13.85491943359376	130.1295776367188	16.31330871582031	25.10296249389648	0.8257191181182877	-7.739638328552248	2.222887124078697e-15	1.493270459541896e-12	36.3025016784668	-0.7316761016845772	133.2463836669922	19.15202331542969	-2.115843772888184	4.604777336120605	4.506377220153809	2.115843772888184	-4.604777336120605	4.506377220153809	0.02681246213614998	-2.982352256774902	6.360259532928467	-0.0268124621361492	2.982352256774902	6.360259532928467	0	0	0	0	0	0	0	0	0	0	0	0	0	0	0	0	0	0	
